<svg xmlns="http://www.w3.org/2000/svg" viewBox="0 0 238.3 76.35"><defs><style>.cls-1{fill:#fff;}</style></defs><g id="Layer_2" data-name="Layer 2"><g id="Layer_1-2" data-name="Layer 1"><path class="cls-1" d="M28.32,0Q15.42,0,7.71,7.6T0,29.89V46.46Q0,61.15,7.71,68.75t20.61,7.6q12.8,0,19.56-7.18t6.76-19.56V48.24H47.93v1.58q0,9-4.77,14.73T28.32,70.27q-10.17,0-15.89-6.19T6.71,46.67v-17q0-11.22,5.72-17.41T28.32,6.08q10.07,0,14.84,5.72t4.77,14.73v.74h6.71v-.53q0-12.37-6.76-19.56T28.32,0Z"/><path class="cls-1" d="M116.08,33.72q3.57-4.26,3.57-11.69h0A20.57,20.57,0,0,0,99.09,1.46H75.73a2.83,2.83,0,0,0-2,.83L63.37,12.66a2.79,2.79,0,0,0-.83,2V74.88h6.71V43.74H105.6a7.67,7.67,0,0,1,5.5,1.77,6.9,6.9,0,0,1,1.84,5.15V74.88h6.71v-25c0-3.21-.8-5.61-2.53-7-2.43-2-7-2.23-9.43-2.3V39.33A16.88,16.88,0,0,0,116.08,33.72ZM95.84,37.64H69.25V7.56H98.94a14,14,0,0,1,14,14v1.3q0,7.14-4.46,11C105.51,36.38,101.3,37.64,95.84,37.64Z"/><path class="cls-1" d="M220.46,1.47h-6.28V37.65H134.26V7.54H202V1.47h-60.7a2.85,2.85,0,0,0-2,.84l-10.94,11a2.81,2.81,0,0,0-.84,2v59.6h6.72V43.31h79.92V62.68a2.87,2.87,0,0,0,.83,2L224.37,74a2.84,2.84,0,0,0,2,.83H238.3V69.22H220.46V43.31H238.3V37.65H220.46Z"/></g></g></svg>